<?xml version="1.0" encoding="UTF-8" standalone="no"?>
<!DOCTYPE svg PUBLIC "-//W3C//DTD SVG 1.1//EN"
 "http://www.w3.org/Graphics/SVG/1.1/DTD/svg11.dtd">
<!-- Generated by graphviz version 2.40.1 (20161225.0304)
 -->
<!-- Title: state transitions Pages: 1 -->
<svg width="1275pt" height="598pt"
 viewBox="0.00 0.00 1275.00 598.00" xmlns="http://www.w3.org/2000/svg" xmlns:xlink="http://www.w3.org/1999/xlink">
<g id="graph0" class="graph" transform="scale(1 1) rotate(0) translate(4 594)">
<title>state transitions</title>
<polygon fill="#ffffff" stroke="transparent" points="-4,4 -4,-594 1271,-594 1271,4 -4,4"/>
<g id="clust1" class="cluster state regular">
<title>cluster_state</title>
<path fill="none" stroke="#000000" stroke-width="2" d="M20,-8C20,-8 1247,-8 1247,-8 1253,-8 1259,-14 1259,-20 1259,-20 1259,-570 1259,-570 1259,-576 1253,-582 1247,-582 1247,-582 20,-582 20,-582 14,-582 8,-576 8,-570 8,-570 8,-20 8,-20 8,-14 14,-8 20,-8"/>
<text text-anchor="start" x="620.4944" y="-563.2" font-family="Helvetica,sans-Serif" font-size="12.00" fill="#000000">state</text>
</g>
<!-- state -->
<!-- IDLE -->
<g id="node2" class="node state regular">
<title>IDLE</title>
<polygon fill="#ffffff" fill-opacity="0.003922" stroke="transparent" stroke-width="2" points="745,-544 689,-544 689,-508 745,-508 745,-544"/>
<text text-anchor="start" x="703.6644" y="-522.2" font-family="Helvetica,sans-Serif" font-size="12.00" fill="#000000">IDLE</text>
<path fill="none" stroke="#000000" stroke-width="2" d="M701.3333,-509C701.3333,-509 732.6667,-509 732.6667,-509 738.3333,-509 744,-514.6667 744,-520.3333 744,-520.3333 744,-531.6667 744,-531.6667 744,-537.3333 738.3333,-543 732.6667,-543 732.6667,-543 701.3333,-543 701.3333,-543 695.6667,-543 690,-537.3333 690,-531.6667 690,-531.6667 690,-520.3333 690,-520.3333 690,-514.6667 695.6667,-509 701.3333,-509"/>
</g>
<!-- ARBIT -->
<g id="node3" class="node state regular">
<title>ARBIT</title>
<polygon fill="#ffffff" fill-opacity="0.003922" stroke="transparent" stroke-width="2" points="745.5,-462 688.5,-462 688.5,-426 745.5,-426 745.5,-462"/>
<text text-anchor="start" x="699.833" y="-440.2" font-family="Helvetica,sans-Serif" font-size="12.00" fill="#000000">ARBIT</text>
<path fill="none" stroke="#000000" stroke-width="2" d="M700.8333,-427C700.8333,-427 733.1667,-427 733.1667,-427 738.8333,-427 744.5,-432.6667 744.5,-438.3333 744.5,-438.3333 744.5,-449.6667 744.5,-449.6667 744.5,-455.3333 738.8333,-461 733.1667,-461 733.1667,-461 700.8333,-461 700.8333,-461 695.1667,-461 689.5,-455.3333 689.5,-449.6667 689.5,-449.6667 689.5,-438.3333 689.5,-438.3333 689.5,-432.6667 695.1667,-427 700.8333,-427"/>
</g>
<!-- IDLE&#45;&gt;ARBIT -->
<g id="edge1" class="edge transition">
<title>IDLE&#45;&gt;ARBIT</title>
<path fill="none" stroke="#000000" d="M717,-507.8015C717,-497.3976 717,-484.1215 717,-472.3768"/>
<polygon fill="#000000" stroke="#000000" points="720.5001,-472.1476 717,-462.1476 713.5001,-472.1476 720.5001,-472.1476"/>
<text text-anchor="middle" x="718.3895" y="-482" font-family="Helvetica,sans-Serif" font-size="10.00" fill="#000000"> </text>
</g>
<!-- WR_START -->
<g id="node4" class="node state regular">
<title>WR_START</title>
<polygon fill="#ffffff" fill-opacity="0.003922" stroke="transparent" stroke-width="2" points="350.5,-380 263.5,-380 263.5,-344 350.5,-344 350.5,-380"/>
<text text-anchor="start" x="274.5048" y="-358.2" font-family="Helvetica,sans-Serif" font-size="12.00" fill="#000000">WR_START</text>
<path fill="none" stroke="#000000" stroke-width="2" d="M275.8333,-345C275.8333,-345 338.1667,-345 338.1667,-345 343.8333,-345 349.5,-350.6667 349.5,-356.3333 349.5,-356.3333 349.5,-367.6667 349.5,-367.6667 349.5,-373.3333 343.8333,-379 338.1667,-379 338.1667,-379 275.8333,-379 275.8333,-379 270.1667,-379 264.5,-373.3333 264.5,-367.6667 264.5,-367.6667 264.5,-356.3333 264.5,-356.3333 264.5,-350.6667 270.1667,-345 275.8333,-345"/>
</g>
<!-- ARBIT&#45;&gt;WR_START -->
<g id="edge2" class="edge transition">
<title>ARBIT&#45;&gt;WR_START</title>
<path fill="none" stroke="#000000" d="M688.2129,-443.3758C601.4176,-441.2341 346.5207,-432.946 318.575,-409 313.0871,-404.2975 309.9801,-397.4504 308.2737,-390.4303"/>
<polygon fill="#000000" stroke="#000000" points="311.6827,-389.5801 306.6615,-380.2508 304.7689,-390.6752 311.6827,-389.5801"/>
<text text-anchor="start" x="318" y="-400" font-family="Helvetica,sans-Serif" font-size="10.00" fill="#000000">cmd_start &amp;&amp; (cmd == CMD_WREN || cmd == CMD_ERASE || cmd == CMD_PP) &#160;&#160;</text>
</g>
<!-- RD_START -->
<g id="node9" class="node state regular">
<title>RD_START</title>
<polygon fill="#ffffff" fill-opacity="0.003922" stroke="transparent" stroke-width="2" points="806.5,-380 721.5,-380 721.5,-344 806.5,-344 806.5,-380"/>
<text text-anchor="start" x="732.8368" y="-358.2" font-family="Helvetica,sans-Serif" font-size="12.00" fill="#000000">RD_START</text>
<path fill="none" stroke="#000000" stroke-width="2" d="M733.8333,-345C733.8333,-345 794.1667,-345 794.1667,-345 799.8333,-345 805.5,-350.6667 805.5,-356.3333 805.5,-356.3333 805.5,-367.6667 805.5,-367.6667 805.5,-373.3333 799.8333,-379 794.1667,-379 794.1667,-379 733.8333,-379 733.8333,-379 728.1667,-379 722.5,-373.3333 722.5,-367.6667 722.5,-367.6667 722.5,-356.3333 722.5,-356.3333 722.5,-350.6667 728.1667,-345 733.8333,-345"/>
</g>
<!-- ARBIT&#45;&gt;RD_START -->
<g id="edge3" class="edge transition">
<title>ARBIT&#45;&gt;RD_START</title>
<path fill="none" stroke="#000000" d="M727.4308,-425.8015C733.6374,-414.973 741.6274,-401.033 748.555,-388.9466"/>
<polygon fill="#000000" stroke="#000000" points="751.6621,-390.564 753.5983,-380.1476 745.5889,-387.083 751.6621,-390.564"/>
<text text-anchor="start" x="743" y="-400" font-family="Helvetica,sans-Serif" font-size="10.00" fill="#000000">cmd_start &amp;&amp; (cmd == CMD_RDSR || cmd == CMD_NORD || cmd == CMD_RDID || cmd == CMD_RDJDID) &#160;&#160;</text>
</g>
<!-- WR_COMMAND -->
<g id="node5" class="node state regular">
<title>WR_COMMAND</title>
<polygon fill="#ffffff" fill-opacity="0.003922" stroke="transparent" stroke-width="2" points="385.5,-298 274.5,-298 274.5,-262 385.5,-262 385.5,-298"/>
<text text-anchor="start" x="285.512" y="-276.2" font-family="Helvetica,sans-Serif" font-size="12.00" fill="#000000">WR_COMMAND</text>
<path fill="none" stroke="#000000" stroke-width="2" d="M286.8333,-263C286.8333,-263 373.1667,-263 373.1667,-263 378.8333,-263 384.5,-268.6667 384.5,-274.3333 384.5,-274.3333 384.5,-285.6667 384.5,-285.6667 384.5,-291.3333 378.8333,-297 373.1667,-297 373.1667,-297 286.8333,-297 286.8333,-297 281.1667,-297 275.5,-291.3333 275.5,-285.6667 275.5,-285.6667 275.5,-274.3333 275.5,-274.3333 275.5,-268.6667 281.1667,-263 286.8333,-263"/>
</g>
<!-- WR_START&#45;&gt;WR_COMMAND -->
<g id="edge4" class="edge transition">
<title>WR_START&#45;&gt;WR_COMMAND</title>
<path fill="none" stroke="#000000" d="M312.1044,-343.8015C315.0524,-333.2915 318.8225,-319.8503 322.1414,-308.0177"/>
<polygon fill="#000000" stroke="#000000" points="325.579,-308.7213 324.9098,-298.1476 318.8391,-306.8308 325.579,-308.7213"/>
<text text-anchor="middle" x="321.3895" y="-318" font-family="Helvetica,sans-Serif" font-size="10.00" fill="#000000"> </text>
</g>
<!-- WR_ADDR -->
<g id="node6" class="node state regular">
<title>WR_ADDR</title>
<polygon fill="#ffffff" fill-opacity="0.003922" stroke="transparent" stroke-width="2" points="790,-216 708,-216 708,-180 790,-180 790,-216"/>
<text text-anchor="start" x="718.6742" y="-194.2" font-family="Helvetica,sans-Serif" font-size="12.00" fill="#000000">WR_ADDR</text>
<path fill="none" stroke="#000000" stroke-width="2" d="M720.3333,-181C720.3333,-181 777.6667,-181 777.6667,-181 783.3333,-181 789,-186.6667 789,-192.3333 789,-192.3333 789,-203.6667 789,-203.6667 789,-209.3333 783.3333,-215 777.6667,-215 777.6667,-215 720.3333,-215 720.3333,-215 714.6667,-215 709,-209.3333 709,-203.6667 709,-203.6667 709,-192.3333 709,-192.3333 709,-186.6667 714.6667,-181 720.3333,-181"/>
</g>
<!-- WR_COMMAND&#45;&gt;WR_ADDR -->
<g id="edge7" class="edge transition">
<title>WR_COMMAND&#45;&gt;WR_ADDR</title>
<path fill="none" stroke="#000000" d="M381.9906,-261.9803C413.2614,-251.8634 454.071,-239.9175 491.178,-233 578.7991,-216.6658 603.5225,-233.0865 691,-216 693.3137,-215.5481 695.6656,-215.0378 698.0316,-214.4828"/>
<polygon fill="#000000" stroke="#000000" points="698.9571,-217.8588 707.7741,-211.9842 697.2181,-211.0782 698.9571,-217.8588"/>
<text text-anchor="start" x="491" y="-236" font-family="Helvetica,sans-Serif" font-size="10.00" fill="#000000">cnt_wr_bits == &#39;d7 &#160;&amp;&amp; clk_falling_edge &#160;&#160;</text>
</g>
<!-- WR_DATA -->
<g id="node7" class="node state regular">
<title>WR_DATA</title>
<polygon fill="#ffffff" fill-opacity="0.003922" stroke="transparent" stroke-width="2" points="437,-134 357,-134 357,-98 437,-98 437,-134"/>
<text text-anchor="start" x="367.6702" y="-112.2" font-family="Helvetica,sans-Serif" font-size="12.00" fill="#000000">WR_DATA</text>
<path fill="none" stroke="#000000" stroke-width="2" d="M369.3333,-99C369.3333,-99 424.6667,-99 424.6667,-99 430.3333,-99 436,-104.6667 436,-110.3333 436,-110.3333 436,-121.6667 436,-121.6667 436,-127.3333 430.3333,-133 424.6667,-133 424.6667,-133 369.3333,-133 369.3333,-133 363.6667,-133 358,-127.3333 358,-121.6667 358,-121.6667 358,-110.3333 358,-110.3333 358,-104.6667 363.6667,-99 369.3333,-99"/>
</g>
<!-- WR_COMMAND&#45;&gt;WR_DATA -->
<g id="edge6" class="edge transition">
<title>WR_COMMAND&#45;&gt;WR_DATA</title>
<path fill="none" stroke="#000000" d="M328.7255,-261.9324C328.175,-240.0483 330.5678,-203.2359 349.974,-180 363.1542,-164.2188 380.7258,-179.4956 393,-163 396.9781,-157.6537 398.8314,-150.9573 399.5086,-144.3093"/>
<polygon fill="#000000" stroke="#000000" points="403.0124,-144.1805 399.7413,-134.1033 396.0142,-144.0209 403.0124,-144.1805"/>
<text text-anchor="start" x="349" y="-195" font-family="Helvetica,sans-Serif" font-size="10.00" fill="#000000">addr_len == &#39;d0 &amp;&amp; wr_len != &#39;d0 &amp;&amp; cnt_wr_bits == &#39;d7 &#160;&amp;&amp; clk_falling_edge &#160;&#160;</text>
</g>
<!-- WR_STOP -->
<g id="node8" class="node state regular">
<title>WR_STOP</title>
<polygon fill="#ffffff" fill-opacity="0.003922" stroke="transparent" stroke-width="2" points="353.5,-52 272.5,-52 272.5,-16 353.5,-16 353.5,-52"/>
<text text-anchor="start" x="283.8342" y="-30.2" font-family="Helvetica,sans-Serif" font-size="12.00" fill="#000000">WR_STOP</text>
<path fill="none" stroke="#000000" stroke-width="2" d="M284.8333,-17C284.8333,-17 341.1667,-17 341.1667,-17 346.8333,-17 352.5,-22.6667 352.5,-28.3333 352.5,-28.3333 352.5,-39.6667 352.5,-39.6667 352.5,-45.3333 346.8333,-51 341.1667,-51 341.1667,-51 284.8333,-51 284.8333,-51 279.1667,-51 273.5,-45.3333 273.5,-39.6667 273.5,-39.6667 273.5,-28.3333 273.5,-28.3333 273.5,-22.6667 279.1667,-17 284.8333,-17"/>
</g>
<!-- WR_COMMAND&#45;&gt;WR_STOP -->
<g id="edge5" class="edge transition">
<title>WR_COMMAND&#45;&gt;WR_STOP</title>
<path fill="none" stroke="#000000" d="M274.3897,-277.7174C189.6686,-273.4856 38,-262.6122 38,-239 38,-239 38,-239 38,-75 38,-52.5946 182.6467,-41.1228 262.13,-36.5103"/>
<polygon fill="#000000" stroke="#000000" points="262.6356,-39.9874 272.4228,-35.9301 262.2417,-32.9985 262.6356,-39.9874"/>
<text text-anchor="start" x="38" y="-154" font-family="Helvetica,sans-Serif" font-size="10.00" fill="#000000">addr_len == &#39;d0 &amp;&amp; wr_len == &#39;d0 &amp;&amp; cnt_wr_bits == &#39;d7 &#160;&amp;&amp; clk_falling_edge &#160;&#160;</text>
</g>
<!-- WR_ADDR&#45;&gt;WR_DATA -->
<g id="edge8" class="edge transition">
<title>WR_ADDR&#45;&gt;WR_DATA</title>
<path fill="none" stroke="#000000" d="M707.7813,-183.9787C702.1897,-182.4392 696.4881,-181.0515 691,-180 595.3939,-161.6817 565.1334,-193.3308 472.634,-163 456.9982,-157.873 441.2897,-148.8846 428.2719,-140.132"/>
<polygon fill="#000000" stroke="#000000" points="429.9256,-137.0179 419.7233,-134.1606 425.917,-142.7565 429.9256,-137.0179"/>
<text text-anchor="start" x="472" y="-154" font-family="Helvetica,sans-Serif" font-size="10.00" fill="#000000">wr_len != &#39;d0 &amp;&amp; cnt_wr_bytes == 3&#45;1 &amp;&amp; clk_falling_edge &amp;&amp; cnt_wr_bits == &#39;d7 &#160;&#160;</text>
</g>
<!-- WR_ADDR&#45;&gt;WR_STOP -->
<g id="edge9" class="edge transition">
<title>WR_ADDR&#45;&gt;WR_STOP</title>
<path fill="none" stroke="#000000" d="M790.201,-184.3564C812.4056,-176.5904 835.9,-167.5317 839,-163 842.0112,-158.5981 842.6763,-154.8639 839,-151 812.8181,-123.4821 527.8109,-156.9881 497.574,-134 473.3431,-115.578 498.6633,-89.3194 476,-69 459.6251,-54.3186 405.2505,-44.7339 363.7624,-39.3685"/>
<polygon fill="#000000" stroke="#000000" points="364.1472,-35.8895 353.7914,-38.1269 363.2822,-42.8359 364.1472,-35.8895"/>
<text text-anchor="start" x="497" y="-113" font-family="Helvetica,sans-Serif" font-size="10.00" fill="#000000">wr_len == &#39;d0 &amp;&amp; cnt_wr_bytes == 3&#45;1 &amp;&amp; clk_falling_edge &amp;&amp; cnt_wr_bits == &#39;d7 &#160;&#160;</text>
</g>
<!-- WR_DATA&#45;&gt;WR_STOP -->
<g id="edge10" class="edge transition">
<title>WR_DATA&#45;&gt;WR_STOP</title>
<path fill="none" stroke="#000000" d="M356.8943,-112.866C293.0429,-107.4655 174.156,-95.5701 161.592,-81 158.1091,-76.961 158.2725,-73.1744 161.592,-69 174.0778,-53.2987 223.1498,-44.0286 262.0886,-39.0162"/>
<polygon fill="#000000" stroke="#000000" points="262.7505,-42.4614 272.2515,-37.7729 261.9004,-35.5132 262.7505,-42.4614"/>
<text text-anchor="start" x="161" y="-72" font-family="Helvetica,sans-Serif" font-size="10.00" fill="#000000">cnt_wr_bits == &#39;d7 &amp;&amp; cnt_wr_bytes == wr_len&#45;1 &amp;&amp; clk_falling_edge &#160;&#160;</text>
</g>
<!-- WR_STOP&#45;&gt;ARBIT -->
<g id="edge11" class="edge transition">
<title>WR_STOP&#45;&gt;ARBIT</title>
<path fill="none" stroke="#000000" d="M353.8781,-35.6456C476.1791,-40.9844 832.9007,-59.7347 867,-98 887.1979,-120.6655 866.8822,-140.9634 846,-163 837.7403,-171.7163 833.0894,-171.1253 825,-180 812.0459,-194.2116 815.9935,-203.9596 801,-216 784.7252,-229.0693 776.0031,-223.8946 757.221,-233 734.3737,-244.0762 723.5934,-241.9618 708,-262 695.3459,-278.2609 695,-285.8956 695,-306.5 695,-403 695,-403 695,-403 695,-407.6701 696.122,-412.3219 697.8592,-416.7255"/>
<polygon fill="#000000" stroke="#000000" points="694.8379,-418.5086 702.4482,-425.8798 701.0956,-415.3716 694.8379,-418.5086"/>
<text text-anchor="middle" x="758.3895" y="-236" font-family="Helvetica,sans-Serif" font-size="10.00" fill="#000000"> </text>
</g>
<!-- RD_COMMAND -->
<g id="node10" class="node state regular">
<title>RD_COMMAND</title>
<polygon fill="#ffffff" fill-opacity="0.003922" stroke="transparent" stroke-width="2" points="827.5,-298 718.5,-298 718.5,-262 827.5,-262 827.5,-298"/>
<text text-anchor="start" x="729.844" y="-276.2" font-family="Helvetica,sans-Serif" font-size="12.00" fill="#000000">RD_COMMAND</text>
<path fill="none" stroke="#000000" stroke-width="2" d="M730.8333,-263C730.8333,-263 815.1667,-263 815.1667,-263 820.8333,-263 826.5,-268.6667 826.5,-274.3333 826.5,-274.3333 826.5,-285.6667 826.5,-285.6667 826.5,-291.3333 820.8333,-297 815.1667,-297 815.1667,-297 730.8333,-297 730.8333,-297 725.1667,-297 719.5,-291.3333 719.5,-285.6667 719.5,-285.6667 719.5,-274.3333 719.5,-274.3333 719.5,-268.6667 725.1667,-263 730.8333,-263"/>
</g>
<!-- RD_START&#45;&gt;RD_COMMAND -->
<g id="edge12" class="edge transition">
<title>RD_START&#45;&gt;RD_COMMAND</title>
<path fill="none" stroke="#000000" d="M765.9974,-343.8015C767.1393,-333.3976 768.5964,-320.1215 769.8855,-308.3768"/>
<polygon fill="#000000" stroke="#000000" points="773.3962,-308.4698 771.0082,-298.1476 766.438,-307.706 773.3962,-308.4698"/>
<text text-anchor="middle" x="770.3895" y="-318" font-family="Helvetica,sans-Serif" font-size="10.00" fill="#000000"> </text>
</g>
<!-- RD_ADDR -->
<g id="node11" class="node state regular">
<title>RD_ADDR</title>
<polygon fill="#ffffff" fill-opacity="0.003922" stroke="transparent" stroke-width="2" points="914.5,-216 835.5,-216 835.5,-180 914.5,-180 914.5,-216"/>
<text text-anchor="start" x="846.5062" y="-194.2" font-family="Helvetica,sans-Serif" font-size="12.00" fill="#000000">RD_ADDR</text>
<path fill="none" stroke="#000000" stroke-width="2" d="M847.8333,-181C847.8333,-181 902.1667,-181 902.1667,-181 907.8333,-181 913.5,-186.6667 913.5,-192.3333 913.5,-192.3333 913.5,-203.6667 913.5,-203.6667 913.5,-209.3333 907.8333,-215 902.1667,-215 902.1667,-215 847.8333,-215 847.8333,-215 842.1667,-215 836.5,-209.3333 836.5,-203.6667 836.5,-203.6667 836.5,-192.3333 836.5,-192.3333 836.5,-186.6667 842.1667,-181 847.8333,-181"/>
</g>
<!-- RD_COMMAND&#45;&gt;RD_ADDR -->
<g id="edge14" class="edge transition">
<title>RD_COMMAND&#45;&gt;RD_ADDR</title>
<path fill="none" stroke="#000000" d="M766.7973,-261.9587C764.7303,-252.5086 764.2533,-241.2245 770.178,-233 770.6415,-232.3566 798.604,-223.0362 825.528,-214.1762"/>
<polygon fill="#000000" stroke="#000000" points="826.9398,-217.3964 835.3476,-210.9497 824.7547,-210.7462 826.9398,-217.3964"/>
<text text-anchor="start" x="770" y="-236" font-family="Helvetica,sans-Serif" font-size="10.00" fill="#000000">cnt_wr_bits == &#39;d7 &#160;&amp;&amp; clk_falling_edge &#160;&#160;</text>
</g>
<!-- RD_DATA -->
<g id="node12" class="node state regular">
<title>RD_DATA</title>
<polygon fill="#ffffff" fill-opacity="0.003922" stroke="transparent" stroke-width="2" points="972.5,-134 895.5,-134 895.5,-98 972.5,-98 972.5,-134"/>
<text text-anchor="start" x="906.5022" y="-112.2" font-family="Helvetica,sans-Serif" font-size="12.00" fill="#000000">RD_DATA</text>
<path fill="none" stroke="#000000" stroke-width="2" d="M907.8333,-99C907.8333,-99 960.1667,-99 960.1667,-99 965.8333,-99 971.5,-104.6667 971.5,-110.3333 971.5,-110.3333 971.5,-121.6667 971.5,-121.6667 971.5,-127.3333 965.8333,-133 960.1667,-133 960.1667,-133 907.8333,-133 907.8333,-133 902.1667,-133 896.5,-127.3333 896.5,-121.6667 896.5,-121.6667 896.5,-110.3333 896.5,-110.3333 896.5,-104.6667 902.1667,-99 907.8333,-99"/>
</g>
<!-- RD_COMMAND&#45;&gt;RD_DATA -->
<g id="edge13" class="edge transition">
<title>RD_COMMAND&#45;&gt;RD_DATA</title>
<path fill="none" stroke="#000000" d="M827.9361,-275.4548C874.143,-270.5618 935.5408,-261.207 954,-245 976.8758,-224.9154 951.5907,-198.7201 975.596,-180 1015.5568,-148.8373 1168.5287,-200.1444 1203,-163 1233.8734,-129.7324 1068.0921,-119.9368 982.5489,-117.1121"/>
<polygon fill="#000000" stroke="#000000" points="982.6371,-113.6133 972.5332,-116.8011 982.4197,-120.6099 982.6371,-113.6133"/>
<text text-anchor="start" x="975" y="-195" font-family="Helvetica,sans-Serif" font-size="10.00" fill="#000000">cnt_wr_bits == &#39;d7 &amp;&amp; addr_len == &#39;d0 &amp;&amp; clk_falling_edge &#160;&#160;</text>
</g>
<!-- RD_ADDR&#45;&gt;RD_DATA -->
<g id="edge15" class="edge transition">
<title>RD_ADDR&#45;&gt;RD_DATA</title>
<path fill="none" stroke="#000000" d="M888.094,-179.8015C895.9617,-168.8668 906.1122,-154.7593 914.867,-142.5916"/>
<polygon fill="#000000" stroke="#000000" points="917.9431,-144.309 920.9426,-134.1476 912.2611,-140.2207 917.9431,-144.309"/>
<text text-anchor="start" x="908" y="-154" font-family="Helvetica,sans-Serif" font-size="10.00" fill="#000000">cnt_wr_bytes == 3&#45;1 &amp;&amp; cnt_wr_bits == &#39;d7 &amp;&amp; clk_falling_edge &#160;&#160;</text>
</g>
<!-- RD_STOP -->
<g id="node13" class="node state regular">
<title>RD_STOP</title>
<polygon fill="#ffffff" fill-opacity="0.003922" stroke="transparent" stroke-width="2" points="1104,-52 1026,-52 1026,-16 1104,-16 1104,-52"/>
<text text-anchor="start" x="1036.6662" y="-30.2" font-family="Helvetica,sans-Serif" font-size="12.00" fill="#000000">RD_STOP</text>
<path fill="none" stroke="#000000" stroke-width="2" d="M1038.3333,-17C1038.3333,-17 1091.6667,-17 1091.6667,-17 1097.3333,-17 1103,-22.6667 1103,-28.3333 1103,-28.3333 1103,-39.6667 1103,-39.6667 1103,-45.3333 1097.3333,-51 1091.6667,-51 1091.6667,-51 1038.3333,-51 1038.3333,-51 1032.6667,-51 1027,-45.3333 1027,-39.6667 1027,-39.6667 1027,-28.3333 1027,-28.3333 1027,-22.6667 1032.6667,-17 1038.3333,-17"/>
</g>
<!-- RD_DATA&#45;&gt;RD_STOP -->
<g id="edge16" class="edge transition">
<title>RD_DATA&#45;&gt;RD_STOP</title>
<path fill="none" stroke="#000000" d="M929.8081,-97.7276C928.7195,-88.2098 929.2848,-76.9348 935.572,-69 945.6813,-56.2415 983.3771,-46.9769 1015.4987,-41.1967"/>
<polygon fill="#000000" stroke="#000000" points="1016.4285,-44.5882 1025.6898,-39.4425 1015.241,-37.6897 1016.4285,-44.5882"/>
<text text-anchor="start" x="935" y="-72" font-family="Helvetica,sans-Serif" font-size="10.00" fill="#000000">cnt_rd_bytes == rd_len&#45;1 &amp;&amp; cnt_rd_bits == &#39;d7 &amp;&amp; clk_falling_edge &#160;&#160;</text>
</g>
<!-- RD_STOP&#45;&gt;ARBIT -->
<g id="edge17" class="edge transition">
<title>RD_STOP&#45;&gt;ARBIT</title>
<path fill="none" stroke="#000000" d="M1104.2337,-38.7809C1158.5388,-45.9405 1250,-60.1962 1250,-75 1250,-171.5 1250,-171.5 1250,-171.5 1250,-237.9444 1250,-254.5556 1250,-321 1250,-403 1250,-403 1250,-403 1250,-427.7994 878.3459,-439.7707 755.7278,-443.0455"/>
<polygon fill="#000000" stroke="#000000" points="755.5611,-439.5486 745.6564,-443.3098 755.7448,-446.5462 755.5611,-439.5486"/>
<text text-anchor="middle" x="1251.3895" y="-236" font-family="Helvetica,sans-Serif" font-size="10.00" fill="#000000"> </text>
</g>
</g>
</svg>
